<?xml version="1.0" encoding="UTF-8" standalone="no"?>
<!-- Created with Inkscape (http://www.inkscape.org/) -->

<svg
   xmlns:dc="http://purl.org/dc/elements/1.1/"
   xmlns:cc="http://creativecommons.org/ns#"
   xmlns:rdf="http://www.w3.org/1999/02/22-rdf-syntax-ns#"
   xmlns:svg="http://www.w3.org/2000/svg"
   xmlns="http://www.w3.org/2000/svg"
   xmlns:sodipodi="http://sodipodi.sourceforge.net/DTD/sodipodi-0.dtd"
   xmlns:inkscape="http://www.inkscape.org/namespaces/inkscape"
   id="svg2"
   version="1.1"
   inkscape:version="0.91 r13725"
   width="407.8125"
   height="379.6875"
   viewBox="0 0 407.8125 379.6875"
   sodipodi:docname="jigsaw-squares.svg">
  <metadata
     id="metadata8">
    <rdf:RDF>
      <cc:Work
         rdf:about="">
        <dc:format>image/svg+xml</dc:format>
        <dc:type
           rdf:resource="http://purl.org/dc/dcmitype/StillImage" />
        <dc:title></dc:title>
      </cc:Work>
    </rdf:RDF>
  </metadata>
  <defs
     id="defs6" />
  <sodipodi:namedview
     pagecolor="#ffffff"
     bordercolor="#666666"
     borderopacity="1"
     objecttolerance="10"
     gridtolerance="10"
     guidetolerance="10"
     inkscape:pageopacity="0"
     inkscape:pageshadow="2"
     inkscape:window-width="1729"
     inkscape:window-height="687"
     id="namedview4"
     showgrid="false"
     showguides="false"
     inkscape:zoom="0.62156379"
     inkscape:cx="139.55244"
     inkscape:cy="125.48994"
     inkscape:window-x="65"
     inkscape:window-y="24"
     inkscape:window-maximized="0"
     inkscape:current-layer="svg2" />
  <path
     style="fill:#000000"
     d="m 264.59693,367.00657 c -9.64112,-2.38347 -23.70063,-8.78834 -31.05443,-14.14697 -4.83202,-3.52104 -11.45445,-11.78105 -13.64092,-17.01399 14.48656,-15.63779 15.74374,13.21054 -51.3984,-1.60675 -13.78636,-3.37254 -35.73092,-10.38232 -51.09375,-16.32093 C 45.753525,308.88151 59.499927,301.5325 34.440679,295.01728 25.060759,292.635 15.566059,288.67357 9.822339,284.74589 7.0947395,282.88071 6.8253795,282.3038 7.3145995,279.375 8.714879,270.99209 27.196569,239.21302 32.810929,235.53434 c 21.512317,-1.02191 -10.585546,15.99363 24.08417,-52.10623 8.62155,-16.93486 16.47272,-33.10769 17.44706,-35.93964 0.97433,-2.83196 3.14789,-7.53867 4.83014,-10.45936 6.38611,-11.08751 7.40625,-12.97245 10.18266,-18.8149 23.350111,-36.723846 7.721173,-10.68773 1.78717,0.90706 -1.16027,2.28799 -2.41945,4.37092 -2.79819,4.62873 -0.37874,0.25781 -1.7892,2.65097 -3.13437,5.31813 -1.34517,2.66716 -3.47115,6.36038 -4.72441,8.20717 -1.25326,1.84678 -3.1694,6.19557 -4.25809,9.66397 l -1.97942,6.30617 1.9966,1.50604 c 1.81721,1.37072 9.63186,3.06521 26.165181,5.67351 3.35156,0.52874 8.37895,1.35255 11.17198,1.83069 55.35345,-4.67308 27.62585,15.87682 69.71869,20.11807 9.81636,0.89448 14.77376,-0.50496 17.9203,-5.05875 4.13773,-5.98828 7.77202,-15.31601 9.91197,-25.44 3.6296,-17.17133 8.10194,-24.3785 17.83956,-28.74838 20.78677,-1.00992 -16.938,2.25341 21.26717,-57.258776 2.74056,-4.24924 4.98283,-8.09709 4.98283,-8.55078 0,-0.45368 -2.5184,-1.1098 -5.59644,-1.45804 -3.07805,-0.34824 -5.84514,-1.03555 -6.14908,-1.52735 -0.30395,-0.49179 -1.70143,-0.89417 -3.1055,-0.89417 -1.40408,0 -4.85965,-0.65253 -7.67905,-1.45006 -15.39722,-4.35547 -15.9947,-4.46275 -19.26505,-3.45905 -1.76417,0.54144 -2.97527,0.60854 -2.69133,0.14912 1.54021,-2.49211 10.67242,-2.25199 17.7677,0.46717 4.41987,1.69385 6.8339,2.31855 11.25,2.91125 2.57812,0.34602 5.35841,0.98815 6.17842,1.42696 0.82002,0.43881 6.09346,1.26349 11.71875,1.83261 5.6253,0.56912 16.6566,2.06976 24.51398,3.33475 49.25258,-0.930289 62.60664,4.20644 62.60664,4.20644 -0.53325,2.84244 -0.273,3.51091 2.02901,5.21171 1.45238,1.07307 4.63605,2.83322 7.0748,3.91144 5.37745,2.37746 25.66858,6.53937 35.61606,7.30519 l 7.23766,0.5572 0.65976,3.43826 c 0.36286,1.89104 0.69152,9.55544 0.73035,17.032006 0.0618,11.90087 -0.19074,14.28658 -2.02784,19.15719 -4.33776,11.50053 -6.42081,17.30719 -14.99394,18.13096 0,0 -15.75267,2.82712 -14.20899,27.62302 0.50451,8.92848 -4.91398,14.59369 -11.46102,29.79833 -3.04155,7.06358 -6.96016,17.64749 -8.70805,23.51981 -3.40127,11.42716 -5.76966,17.72609 -16.88076,44.89569 -25.2977,28.36446 -10.35727,28.94822 -41.69327,94.84942 -2.50403,5.27603 -3.59893,6.56063 -6.99188,8.20312 -4.57257,2.21354 -9.11787,2.35536 -16.55593,0.51653 z m 15,-11.07393 c 0,-2.0239 6.97215,-19.53338 11.25945,-28.27639 17.56,-23.83269 11.53054,-23.93638 30.44333,-68.4375 3.94075,-9.28125 9.30579,-22.14844 11.9223,-28.59375 2.61653,-6.44531 5.12129,-12.11953 5.56612,-12.60937 0.44484,-0.48985 0.8088,-1.46107 0.8088,-2.15829 0,-1.01127 -1.56428,-1.14626 -7.73438,-0.66744 -16.21039,1.25798 -40.31288,-6.61393 -49.21875,-16.07494 0,0 -11.43635,0.8649 -34.02192,-5.06257 -1.97006,-0.53048 -6.34586,-2.64366 -9.724,-4.69595 -3.37813,-2.05229 -6.82708,-3.73144 -7.66432,-3.73144 -0.83722,0 -3.90345,-0.60436 -6.81381,-1.34302 -6.23397,-1.58222 -21.31272,-2.46446 -24.14494,-1.41269 -1.10513,0.4104 -2.71287,2.52557 -3.64243,4.79207 -3.16304,7.71227 -5.29569,13.46524 -8.10724,21.86989 -1.55239,4.64063 -3.21194,8.83828 -3.68788,9.32813 -0.47593,0.48984 -0.86533,1.59901 -0.86533,2.46483 0,2.56308 -4.49504,11.6133 -6.78619,13.66317 -24.98174,33.74475 -12.83798,27.18674 -34.45848,74.39575 -0.26074,0.26227 -1.48471,1.62047 -2.71993,3.01819 l -2.24584,2.54131 2.71459,1.03575 c 1.49303,0.56965 4.82397,1.59792 7.4021,2.28503 2.57812,0.68711 9.16424,2.55425 14.63581,4.1492 40.3201,18.89435 71.02851,30.44699 61.10073,13.07687 3.09264,4.6733 6.9532,7.61087 14.73221,11.21001 15.20511,7.03499 28.70402,11.25578 36.32812,11.35892 4.55336,0.0616 4.92188,-0.0976 4.92188,-2.12577 z M 113.45262,306.63121 c 2.94968,1.49605 6.1661,2.72543 7.1476,2.73195 0.9815,0.007 4.0682,1.09223 6.85934,2.41265 2.79114,1.32042 5.97253,2.26964 7.06975,2.10937 1.16722,-0.17049 4.04521,-2.96663 6.93638,-6.73909 10.40458,-68.66188 33.08338,-64.00823 41.11553,-87.3023 0.68888,-2.0625 2.58032,-7.33594 4.20321,-11.71875 1.62289,-4.38281 3.51923,-9.71849 4.2141,-11.85706 0.69487,-2.13857 1.92939,-5.17621 2.7434,-6.75032 0.814,-1.5741 1.48,-3.23537 1.48,-3.69169 0,-0.45631 -3.76487,-0.8994 -8.36638,-0.98464 -10.68352,-0.19788 -27.30339,-3.75923 -33.38285,-7.15336 -5.42366,-3.028 -8.06904,-5.66448 -9.74615,-9.71337 0,0 17.18199,2.78268 -23.85525,-2.42019 -14.23584,-1.84092 -28.209431,-4.21783 -38.363761,-6.52567 -6.27031,-1.4251 -9.42626,-1.77552 -9.94962,-1.10478 -12.872735,54.2003 -29.850269,57.60883 -42.15035,82.64892 -0.64867,1.42368 -2.31284,4.09369 -3.69815,5.93339 -6.70899,8.90953 -16.006919,27.51459 -16.074839,32.1656 -0.0342,2.34235 0.28387,2.58791 3.47797,2.68502 5.613639,0.17068 8.527259,0.63676 13.200119,2.11155 2.4079,0.75996 6.44739,1.66205 8.97664,2.00466 2.52924,0.34261 6.74799,1.59245 9.375,2.77741 2.627,1.18496 5.69353,2.43318 6.81449,2.7738 35.832112,17.76805 27.949037,19.43811 61.973821,15.6069 z m 222.56172,-93.71643 c 2.23552,-0.1453 4.52009,-2.699 4.52009,-5.05255 0,-2.67597 5.29406,-15.19997 12.93016,-30.58843 -7.48258,-47.6255 24.48604,-36.6434 35.23377,-61.68256 2.35435,-5.59371 6.99804,-32.616776 5.8092,-33.805616 -0.27351,-0.2735 -4.83013,-0.86192 -10.12583,-1.3076 -5.29571,-0.44568 -12.1598,-1.48993 -15.25355,-2.32056 -3.09375,-0.83063 -7.3125,-1.8151 -9.375,-2.18771 -6.0763,-1.09774 -15.65603,-5.47096 -18.92509,-8.63946 0,0 24.65274,-16.539117 -30.61673,-9.19952 -0.59576,0.003 -2.34881,0.67676 -3.89568,1.49686 -4.87632,2.58523 -12.13783,2.58254 -27.83191,-0.0103 -8.08881,-1.33639 -15.97024,-2.42979 -17.51429,-2.42979 -2.70596,0 -4.81866,2.00545 -8.0913,7.68058 -0.51563,0.89415 -3.10595,5.33259 -5.75628,9.8632 -16.90264,55.196696 -17.60315,28.365386 -14.13598,49.325376 -6.70205,1.43747 -14.44439,8.97348 -15.78695,15.36622 -0.13187,0.6279 -1.11106,4.0029 -2.17599,7.5 -1.06492,3.4971 -2.35611,8.25681 -2.86927,10.57712 -1.34785,6.09424 -4.60639,14.98155 -6.80686,18.56494 -1.04571,1.7029 -1.73075,3.26673 -1.52231,3.47518 0.20846,0.20844 4.15892,0.64132 8.77882,0.96196 13.89783,0.96455 25.48998,4.11733 30.10748,8.1885 39.93296,10.42434 20.28532,-0.55975 53.37365,16.62037 11.27429,5.70519 25.99934,8.50927 39.92985,7.60383 z M 179.63759,48.114234 c -1.99893,-1.68507 -4.6891,-3.44464 -5.97816,-3.91016 -3.84101,-1.38712 -12.42235,-3.29863 -15.9375,-3.55012 -1.80469,-0.12912 -7.71094,-0.65325 -13.125,-1.16475 l -9.84375,-0.92999 12.89752,0.40112 c 75.14801,15.167435 31.98689,9.1539 58.85521,13.53967 2.2686,-2.56798 2.65158,-2.77177 1.76184,-0.9375 -28.63016,-3.44827 -25.84642,-0.997107 -28.63016,-3.44827 z m -64.10316,30.79154 c 4.44225,-3.23812 10.68061,-17.2186 13.03777,-29.21827 1.61219,-8.20727 2.84686,-11.25 4.56502,-11.25 1.25062,0 1.23581,0.2232 -0.11374,1.71444 -0.85336,0.94295 -1.55155,3.00423 -1.55155,4.58063 0,3.59528 -5.52231,20.7781 -8.67744,27.00016 -2.83489,5.59051 -4.54175,7.24123 -10.08942,9.75763 -14.593402,17.445505 -15.170409,9.69151 2.82936,-2.58459 z"
     id="path4138"
     inkscape:connector-curvature="0"
     sodipodi:nodetypes="ssccccssccssccsssscssccssccsscssssssssccssscsssccssccsssccssssccssssssssccscssccsssccssccssssssccsccsssssscccscccsssccssssccsssscscccccsssccccccssssscc" />
</svg>
