<?xml version="1.0" encoding="UTF-8" standalone="no"?>
<!-- Created with Inkscape (http://www.inkscape.org/) -->

<svg
   xmlns:dc="http://purl.org/dc/elements/1.1/"
   xmlns:cc="http://creativecommons.org/ns#"
   xmlns:rdf="http://www.w3.org/1999/02/22-rdf-syntax-ns#"
   xmlns:svg="http://www.w3.org/2000/svg"
   xmlns="http://www.w3.org/2000/svg"
   xmlns:sodipodi="http://sodipodi.sourceforge.net/DTD/sodipodi-0.dtd"
   xmlns:inkscape="http://www.inkscape.org/namespaces/inkscape"
   id="svg2"
   version="1.1"
   inkscape:version="0.91 r13725"
   width="407.8125"
   height="379.6875"
   viewBox="0 0 407.8125 379.6875"
   sodipodi:docname="jigsaw.svg">
  <metadata
     id="metadata8">
    <rdf:RDF>
      <cc:Work
         rdf:about="">
        <dc:format>image/svg+xml</dc:format>
        <dc:type
           rdf:resource="http://purl.org/dc/dcmitype/StillImage" />
        <dc:title></dc:title>
      </cc:Work>
    </rdf:RDF>
  </metadata>
  <defs
     id="defs6" />
  <sodipodi:namedview
     pagecolor="#ffffff"
     bordercolor="#666666"
     borderopacity="1"
     objecttolerance="10"
     gridtolerance="10"
     guidetolerance="10"
     inkscape:pageopacity="0"
     inkscape:pageshadow="2"
     inkscape:window-width="698"
     inkscape:window-height="480"
     id="namedview4"
     showgrid="false"
     showguides="false"
     inkscape:zoom="0.62156379"
     inkscape:cx="203.90625"
     inkscape:cy="189.84375"
     inkscape:window-x="65"
     inkscape:window-y="24"
     inkscape:window-maximized="0"
     inkscape:current-layer="svg2" />
  <path
     style="fill:#000000"
     d="m 264.59693,367.00657 c -9.64112,-2.38347 -23.70063,-8.78834 -31.05443,-14.14697 -4.83202,-3.52104 -11.45445,-11.78105 -13.64092,-17.01399 -1.67994,-4.02066 -1.78896,-12.4323 -0.20024,-15.45043 3.07989,-5.85095 8.20694,-11.04371 13.95809,-14.13699 6.9375,-3.73136 11.61943,-9.49629 12.64572,-15.57086 0.9124,-5.40049 -0.003,-7.17197 -4.95463,-9.59234 -12.13098,-5.92917 -29.18201,0.8944 -32.85307,13.1473 -0.59841,1.99732 -1.08802,7.19881 -1.08802,11.55885 0,4.7103 -0.59133,9.66281 -1.45714,12.2038 -4.58581,13.45862 -20.53369,20.37191 -37.44911,16.23392 -13.78636,-3.37254 -35.73092,-10.38232 -51.09375,-16.32093 -12.70868,-4.91263 -18.92839,-5.69659 -24.132341,-3.04173 -6.87827,3.50904 -9.3125,8.45002 -10.10206,20.50512 -0.94177,14.37902 -5.53185,22.70352 -14.93222,27.08084 -10.40782,4.84644 -19.63874,2.06942 -26.51331,-7.97622 -3.8388,-5.60955 -4.00757,-6.15131 -4.00757,-12.86465 0,-5.29415 0.48895,-7.97396 1.99889,-10.95551 2.65093,-5.23457 7.65522,-10.75411 13.13706,-14.48967 5.3287,-3.6312 6.95482,-8.31507 4.01469,-11.56387 -2.64004,-2.9172 -12.14209,-6.98159 -22.43189,-9.59496 C 25.060759,292.635 15.566059,288.67357 9.822339,284.74589 7.0947395,282.88071 6.8253795,282.3038 7.3145995,279.375 8.714879,270.99209 27.196569,239.21302 32.810929,235.53434 c 6.02439,-3.94732 14.03539,-0.90933 17.9559,6.80941 2.4026,4.73026 3.6817,6.30184 6.75829,8.30362 7.76625,5.05313 25.0466,-6.68998 24.08768,-16.36912 -0.60247,-6.08122 -6.06588,-7.766 -19.6715,-6.06621 -3.43716,0.42942 -7.27071,0.52441 -8.51899,0.21112 -3.23765,-0.8126 -8.94937,-6.4995 -10.70585,-10.65935 l -1.49691,-3.54506 15.67555,-30.79064 c 8.62155,-16.93486 16.47272,-33.10769 17.44706,-35.93964 0.97433,-2.83196 3.14789,-7.53867 4.83014,-10.45936 6.38611,-11.08751 7.40625,-12.97245 10.18266,-18.8149 3.93455,-8.27956 3.28502,-8.84924 -9.84886,-8.63804 -7.06987,0.11368 -10.64815,-0.22758 -12.48742,-1.19092 -2.94438,-1.54217 -7.94389,-6.62327 -9.49676,-9.651746 -1.60628,-3.13263 -1.25431,-8.66265 0.82044,-12.89064 2.45142,-4.99558 8.8558,-11.80702 10.98258,-11.68063 1.16127,0.069 0.88406,0.41355 -0.89989,1.11847 -1.41797,0.56031 -2.57812,1.33745 -2.57812,1.72697 0,0.38952 -1.11063,1.89011 -2.46806,3.33465 -4.94994,5.26758 -6.55419,13.3024 -3.39132,16.98535 2.06732,2.40725 8.51067,5.799166 11.00175,5.791546 1.03888,-0.003 3.1545,-0.67218 4.70138,-1.48668 6.77632,-3.568036 16.66447,-2.342746 19.19096,2.37803 1.38191,2.58214 1.19093,8.12986 -0.33232,9.65311 -0.71369,0.71368 -2.24692,3.1696 -3.40719,5.45759 -1.16027,2.28799 -2.41945,4.37092 -2.79819,4.62873 -0.37874,0.25781 -1.7892,2.65097 -3.13437,5.31813 -1.34517,2.66716 -3.47115,6.36038 -4.72441,8.20717 -1.25326,1.84678 -3.1694,6.19557 -4.25809,9.66397 l -1.97942,6.30617 1.9966,1.50604 c 1.81721,1.37072 9.63186,3.06521 26.165181,5.67351 3.35156,0.52874 8.37895,1.35255 11.17198,1.83069 8.58011,1.4688 11.68533,1.139 14.16911,-1.50486 1.82232,-1.93977 2.2088,-3.29814 2.1122,-7.42377 -0.0651,-2.77727 -0.61397,-5.97589 -1.21987,-7.10804 -1.2655,-2.36459 -0.49459,-9.38612 1.44159,-13.13028 1.8906,-3.65602 9.45181,-10.21659 14.19094,-12.31293 2.32461,-1.02829 7.2713,-2.09989 10.99264,-2.38133 9.18139,-0.69439 12.11556,0.83805 15.27247,7.97638 4.61364,10.43225 0.75455,20.03663 -10.39829,25.8789 -7.14055,3.74048 -13.67027,9.83822 -13.67027,12.76591 0,8.40211 14.7293,15.34441 36.82817,17.35809 9.81636,0.89448 14.77376,-0.50496 17.9203,-5.05875 4.13773,-5.98828 7.77202,-15.31601 9.91197,-25.44 3.6296,-17.17133 8.10194,-24.3785 17.83956,-28.74838 5.66777,-2.54349 13.2645,-3.18464 16.59686,-1.40076 1.13608,0.60817 3.57312,3.37693 5.41565,6.15282 3.94326,5.94076 6.86993,6.93326 15.31381,5.19319 10.6647,-2.19772 15.01581,-6.55755 15.86242,-15.89418 0.48426,-5.3404 0.34528,-5.882 -2.19525,-8.55448 -5.67484,-5.96958 -9.53148,-6.66094 -19.67672,-3.5274 -7.21404,2.22819 -13.11129,1.92745 -19.75333,-1.00735 -5.08459,-2.24665 -7.1279,-5.293306 -6.02444,-8.982656 1.80594,-6.03796 7.03699,-15.76226 15.72817,-29.23796 2.74056,-4.24924 4.98283,-8.09709 4.98283,-8.55078 0,-0.45368 -2.5184,-1.1098 -5.59644,-1.45804 -3.07805,-0.34824 -5.84514,-1.03555 -6.14908,-1.52735 -0.30395,-0.49179 -1.70143,-0.89417 -3.1055,-0.89417 -1.40408,0 -4.85965,-0.65253 -7.67905,-1.45006 -15.39722,-4.35547 -15.9947,-4.46275 -19.26505,-3.45905 -1.76417,0.54144 -2.97527,0.60854 -2.69133,0.14912 1.54021,-2.49211 10.67242,-2.25199 17.7677,0.46717 4.41987,1.69385 6.8339,2.31855 11.25,2.91125 2.57812,0.34602 5.35841,0.98815 6.17842,1.42696 0.82002,0.43881 6.09346,1.26349 11.71875,1.83261 5.6253,0.56912 16.6566,2.06976 24.51398,3.33475 15.10144,2.43125 17.8919,2.32009 26.03428,-1.03709 4.5075,-1.85848 7.43761,-4.41052 10.408,-9.06506 2.35563,-3.69123 2.50207,-8.70928 0.4144,-14.20027 -1.44612,-3.8036 -1.22195,-6.3899 0.98666,-11.38282 2.17553,-4.918133 8.89885,-12.198805 12.54519,-13.5851373 3.71588,-1.412778 13.89257,-2.177319 19.55872,-1.469382 10.17328,1.271068 14.71662,6.6272693 14.9226,17.5924193 0.17016,9.05844 -2.68732,14.4411 -12.17338,22.93107 -7.27459,6.51072 -9.09322,9.11034 -10.08983,14.42271 -0.53325,2.84244 -0.273,3.51091 2.02901,5.21171 1.45238,1.07307 4.63605,2.83322 7.0748,3.91144 5.37745,2.37746 25.66858,6.53937 35.61606,7.30519 l 7.23766,0.5572 0.65976,3.43826 c 0.36286,1.89104 0.69152,9.55544 0.73035,17.032006 0.0618,11.90087 -0.19074,14.28658 -2.02784,19.15719 -4.33776,11.50053 -10.42081,17.30719 -18.99394,18.13096 -6.50699,0.62524 -12.12661,-1.03777 -20.32586,-6.01505 -3.88873,-2.36062 -8.65064,-4.50399 -10.58201,-4.76304 -4.67001,-0.62638 -13.23681,1.95387 -16.99978,5.12021 -4.25703,3.58204 -8.34225,10.37752 -8.34225,13.87672 0,7.02216 10.81977,9.81908 21.20253,5.48089 4.61075,-1.9265 9.29948,-1.60079 13.26922,0.92177 6.1142,3.88523 7.15507,5.67314 7.56916,13.00152 0.50451,8.92848 -0.91398,14.59369 -7.46102,29.79833 -3.04155,7.06358 -6.96016,17.64749 -8.70805,23.51981 -3.40127,11.42716 -5.76966,17.72609 -16.88076,44.89569 -7.0007,17.11859 -8.34786,22.76822 -5.99108,25.125 1.85237,1.85237 7.68225,1.27839 12.37873,-1.21875 5.82157,-3.09536 14.94598,-3.2615 20.89734,-0.38049 4.55526,2.20516 9.79901,8.08077 12.0766,13.53181 2.36261,5.65453 2.21881,17.77655 -0.26661,22.47368 -7.58332,14.33154 -24.29091,16.63875 -38.22299,5.27833 -11.65561,-9.50416 -14.02777,-10.30034 -19.94317,-6.69366 -6.54248,3.98903 -8.89262,7.80516 -22.62209,36.7335 -2.50403,5.27603 -3.59893,6.56063 -6.99188,8.20312 -4.57257,2.21354 -9.11787,2.35536 -16.55593,0.51653 z m 15,-11.07393 c 0,-2.0239 6.97215,-19.53338 11.25945,-28.27639 10.84267,-22.11127 14.98697,-25.92736 25.02941,-23.04723 3.80661,1.09172 9.99936,7.06181 11.75955,11.33673 2.37888,5.77748 13.03406,11.18933 19.18209,9.74272 1.43729,-0.3382 5.04541,-1.88894 8.01804,-3.4461 7.04906,-3.69253 11.91147,-10.8637 11.46574,-16.90988 -0.1592,-2.15944 -0.32879,-4.60169 -0.37687,-5.42725 -0.12659,-2.17377 -8.63972,-10.88408 -11.86918,-12.1441 -3.06299,-1.19506 -13.60946,-1.28545 -14.41833,-0.12358 -1.14181,1.64013 -9.07869,5.04994 -11.75455,5.04994 -5.01505,0 -10.30853,-2.98652 -13.09211,-7.38642 -2.99971,-4.74151 -3.62214,-2.24375 6.49954,-26.08233 3.94075,-9.28125 9.30579,-22.14844 11.9223,-28.59375 2.61653,-6.44531 5.12129,-12.11953 5.56612,-12.60937 0.44484,-0.48985 0.8088,-1.46107 0.8088,-2.15829 0,-1.01127 -1.56428,-1.14626 -7.73438,-0.66744 -16.21039,1.25798 -40.31288,-6.61393 -49.21875,-16.07494 -2.1914,-2.328 -3.98437,-4.56516 -3.98437,-4.97145 0,-4.45871 7.0049,-11.98951 14.15094,-15.21334 5.66837,-2.5572 10.36063,-9.88205 10.45803,-16.32553 0.15518,-10.26468 -14.51147,-17.29931 -27.77961,-13.32408 -4.47388,1.34041 -7.16051,4.02117 -10.58052,10.55746 -2.83271,5.41386 -3.34588,13.34786 -1.29418,20.00917 1.77506,5.76316 -0.0322,9.26657 -6.51548,12.6302 -4.3009,2.23139 -5.32941,2.42249 -8.47673,1.575 -1.97006,-0.53048 -6.34586,-2.64366 -9.724,-4.69595 -3.37813,-2.05229 -6.82708,-3.73144 -7.66432,-3.73144 -0.83722,0 -3.90345,-0.60436 -6.81381,-1.34302 -6.23397,-1.58222 -21.31272,-2.46446 -24.14494,-1.41269 -1.10513,0.4104 -2.71287,2.52557 -3.64243,4.79207 -3.16304,7.71227 -5.29569,13.46524 -8.10724,21.86989 -1.55239,4.64063 -3.21194,8.83828 -3.68788,9.32813 -0.47593,0.48984 -0.86533,1.59901 -0.86533,2.46483 0,2.56308 -4.49504,11.6133 -6.78619,13.66317 -3.64965,3.26533 -8.80161,5.95012 -11.41789,5.95012 -3.69573,0 -7.0968,-2.07211 -11.9935,-7.30708 -2.39651,-2.56207 -5.59248,-5.53783 -7.10214,-6.61281 -2.55935,-1.82241 -3.13363,-1.87519 -8.49767,-0.78103 -4.75575,0.97009 -6.48295,1.89004 -9.96547,5.30786 -5.05537,4.96149 -6.49982,8.79111 -5.64902,14.97717 0.54976,3.99723 1.11772,4.91936 4.45494,7.23297 4.02781,2.79239 6.17727,3.02962 19.92989,2.19968 6.60176,-0.3984 10.67108,1.1806 12.41392,4.81691 1.34067,2.79721 0.40234,13.82737 -1.66235,19.54133 -3.88526,10.75229 -11.54345,25.62471 -14.96919,29.07063 -0.26074,0.26227 -1.48471,1.62047 -2.71993,3.01819 l -2.24584,2.54131 2.71459,1.03575 c 1.49303,0.56965 4.82397,1.59792 7.4021,2.28503 2.57812,0.68711 9.16424,2.55425 14.63581,4.1492 13.90722,4.0539 17.67981,3.83979 28.9031,-1.6404 3.66768,-1.79089 5.97314,-3.77126 8.20312,-7.04645 3.53704,-5.19485 3.83256,-8.14306 1.57019,-15.66498 -1.97013,-6.55029 -1.82724,-9.70878 0.69838,-15.43813 4.48951,-10.1844 10.9857,-15.14058 21.08074,-16.08327 14.9438,-1.39547 27.56491,6.26972 27.56491,16.74103 0,5.07287 -3.28847,13.36427 -7.12752,17.97099 -2.42015,2.9041 -10.94103,8.12296 -13.26311,8.12338 -0.64453,1.3e-4 -1.17187,0.42209 -1.17187,0.93772 0,0.51562 -0.75367,1.69117 -1.67482,2.61232 -6.45039,6.45039 -8.01235,16.02165 -3.68239,22.56466 3.09264,4.6733 6.9532,7.61087 14.73221,11.21001 15.20511,7.03499 28.70402,11.25578 36.32812,11.35892 4.55336,0.0616 4.92188,-0.0976 4.92188,-2.12577 z M 61.830749,353.81687 c 8.47354,-3.57253 10.21108,-4.78623 13.03465,-9.10489 3.21662,-4.91986 4.65662,-10.99489 3.23556,-13.65016 -0.49676,-0.9282 -1.06138,-4.18355 -1.25471,-7.2341 -0.55726,-8.79303 4.35559,-18.00902 11.98308,-22.47903 4.39162,-2.57367 8.63992,-2.55277 11.705101,0.0576 0.77344,0.65867 2.78975,1.49171 4.48069,1.85121 1.69094,0.35949 5.48781,1.87767 8.4375,3.37371 2.94968,1.49605 6.1661,2.72543 7.1476,2.73195 0.9815,0.007 4.0682,1.09223 6.85934,2.41265 2.79114,1.32042 5.97253,2.26964 7.06975,2.10937 1.16722,-0.17049 4.04521,-2.96663 6.93638,-6.73909 8.0969,-10.56505 14.84873,-26.58444 15.87366,-37.6618 0.52651,-5.69049 0.36206,-6.81227 -1.29879,-8.85925 -2.03342,-2.50616 -1.21783,-2.4204 -18.87569,-1.98506 -4.59583,0.1133 -7.04309,-0.35659 -10.3125,-1.98007 -4.99732,-2.48149 -6.82219,-5.63346 -6.91745,-11.94802 -0.0862,-5.70889 1.90751,-9.74524 7.54333,-15.2724 3.95439,-3.87816 5.32117,-4.60183 10.37132,-5.49141 3.19918,-0.56352 6.8613,-0.76241 8.13805,-0.44196 1.27673,0.32043 5.24176,3.53214 8.81116,7.13712 4.2196,4.26166 7.49367,6.75528 9.35949,7.12845 8.05221,1.61043 13.74864,-3.93293 18.42295,-17.9279 0.68888,-2.0625 2.58032,-7.33594 4.20321,-11.71875 1.62289,-4.38281 3.51923,-9.71849 4.2141,-11.85706 0.69487,-2.13857 1.92939,-5.17621 2.7434,-6.75032 0.814,-1.5741 1.48,-3.23537 1.48,-3.69169 0,-0.45631 -3.76487,-0.8994 -8.36638,-0.98464 -10.68352,-0.19788 -27.30339,-3.75923 -33.38285,-7.15336 -5.42366,-3.028 -8.06904,-5.66448 -9.74615,-9.71337 -1.05521,-2.54751 -0.98387,-3.30561 0.5597,-5.94858 1.6882,-2.8906 10.97279,-10.14619 12.9877,-10.14943 1.89414,-0.003 7.99871,-5.84798 10.41627,-9.97323 2.11118,-3.60246 2.38409,-4.90384 1.89479,-9.03527 -0.45023,-3.80141 -1.24009,-5.49505 -3.71864,-7.97361 -4.25807,-4.25807 -8.0408,-4.96557 -16.24347,-3.03804 -4.81313,1.13103 -7.78579,2.49869 -10.76008,4.9505 -7.14073,5.88636 -7.80736,7.06103 -7.57577,13.34935 0.76037,20.6467 0.96879,19.074 -3.01101,22.72122 -3.42065,3.13479 -3.83744,3.26754 -8.40474,2.6769 -14.23584,-1.84092 -28.209431,-4.21783 -38.363761,-6.52567 -6.27031,-1.4251 -9.42626,-1.77552 -9.94962,-1.10478 -2.55306,3.27204 -27.27931,53.90226 -27.26374,55.82608 0.0231,2.8502 0.65187,3.7884 3.94164,5.88103 3.66204,2.32944 7.23368,2.00639 13.0082,-1.17654 2.78941,-1.53754 6.43422,-2.80316 8.09956,-2.8125 8.55209,-0.048 16.12625,7.0745 16.02515,15.06949 -0.0491,3.87934 -2.76926,10.57341 -5.67931,13.97602 -4.70508,5.50147 -17.27971,10.44091 -22.54555,8.85611 -3.00643,-0.90485 -8.17194,-6.10445 -8.17194,-8.22592 0,-2.80596 -7.70239,-10.00523 -10.70445,-10.00523 -3.65225,0 -7.50551,2.28779 -8.85991,5.26038 -0.64867,1.42368 -2.31284,4.09369 -3.69815,5.93339 -6.70899,8.90953 -16.006919,27.51459 -16.074839,32.1656 -0.0342,2.34235 0.28387,2.58791 3.47797,2.68502 5.613639,0.17068 8.527259,0.63676 13.200119,2.11155 2.4079,0.75996 6.44739,1.66205 8.97664,2.00466 2.52924,0.34261 6.74799,1.59245 9.375,2.77741 2.627,1.18496 5.69353,2.43318 6.81449,2.7738 3.39864,1.03272 9.49757,7.6784 10.68552,11.64342 1.00084,3.34052 0.88744,4.11803 -1.13551,7.78524 -1.35141,2.44983 -4.05405,5.25624 -6.77905,7.0393 -6.37278,4.16995 -9.34965,7.23653 -12.3166,12.68779 -2.27423,4.17851 -2.5183,5.43733 -2.08963,10.77757 0.37015,4.61136 1.0104,6.61705 2.6975,8.45039 5.42233,5.89239 12.13302,7.42618 19.28972,4.40885 z M 336.01434,212.91478 c 2.23552,-0.1453 4.52009,-2.699 4.52009,-5.05255 0,-2.67597 5.29406,-15.19997 12.93016,-30.58843 7.39045,-14.89345 7.54927,-16.71179 1.91143,-21.88318 -4.62682,-4.24401 -6.93453,-4.41642 -16.21938,-1.21172 -6.17954,2.13289 -7.05461,2.21502 -11.78923,1.10644 -6.72729,-1.57515 -8.57912,-2.65743 -12.05409,-7.04495 -3.55242,-4.4853 -3.68632,-7.60208 -0.64781,-15.07991 3.5904,-8.83602 7.26483,-12.69407 14.85063,-15.59278 5.36696,-2.05082 7.55824,-2.41096 12.2905,-2.01993 7.00627,0.57894 11.98647,2.83833 14.08433,6.38972 3.03583,5.13927 6.79432,6.92086 14.61544,6.92803 10.46674,0.01 13.54677,-2.23783 18.19195,-13.27428 2.35435,-5.59371 6.99804,-32.616776 5.8092,-33.805616 -0.27351,-0.2735 -4.83013,-0.86192 -10.12583,-1.3076 -5.29571,-0.44568 -12.1598,-1.48993 -15.25355,-2.32056 -3.09375,-0.83063 -7.3125,-1.8151 -9.375,-2.18771 -6.0763,-1.09774 -15.65603,-5.47096 -18.92509,-8.63946 -3.3234,-3.22116 -4.72725,-8.64623 -3.58416,-13.85068 0.79833,-3.63473 8.79971,-11.96554 14.49672,-15.09355 5.42098,-2.97645 9.92324,-8.96631 11.19429,-14.89303 1.25889,-5.870007 0.24661,-8.423891 -4.69686,-11.849718 -3.12397,-2.1649093 -4.59399,-2.5032353 -11.34935,-2.6120543 -13.90072,-0.223921 -20.10412,3.1023453 -24.86987,13.3352193 l -2.33923,5.022733 1.86686,6.22727 c 2.02162,6.74345 1.8408,11.18159 -0.62042,15.22875 -1.76517,2.90259 -9.12074,9.27704 -10.71471,9.28554 -0.59576,0.003 -2.34881,0.67676 -3.89568,1.49686 -4.87632,2.58523 -12.13783,2.58254 -27.83191,-0.0103 -8.08881,-1.33639 -15.97024,-2.42979 -17.51429,-2.42979 -2.70596,0 -4.81866,2.00545 -8.0913,7.68058 -0.51563,0.89415 -3.10595,5.33259 -5.75628,9.8632 -7.39601,12.64312 -9.71247,17.72129 -9.71247,21.29178 0,2.8842 0.49742,3.56441 4.18838,5.727456 5.54712,3.25082 12.50551,3.48495 18.58883,0.62546 7.66591,-3.603406 15.74173,-1.95425 21.75404,4.44236 2.4479,2.60436 2.81123,3.68313 2.80273,8.32134 -0.0176,9.58754 -4.27063,15.40695 -13.82766,18.92024 -10.23654,3.76309 -19.26404,2.08884 -22.65131,-4.20094 -0.96288,-1.78796 -2.46646,-3.8986 -3.34129,-4.69031 -1.76094,-1.59364 -7.29023,-2.10872 -11.93723,-1.11201 -6.70205,1.43747 -14.44439,8.97348 -15.78695,15.36622 -0.13187,0.6279 -1.11106,4.0029 -2.17599,7.5 -1.06492,3.4971 -2.35611,8.25681 -2.86927,10.57712 -1.34785,6.09424 -4.60639,14.98155 -6.80686,18.56494 -1.04571,1.7029 -1.73075,3.26673 -1.52231,3.47518 0.20846,0.20844 4.15892,0.64132 8.77882,0.96196 13.89783,0.96455 25.48998,4.11733 30.10748,8.1885 3.51041,3.09505 8.9562,3.74851 13.82973,1.65948 4.46953,-1.91587 5.96359,-4.55213 4.94573,-8.72676 -0.28053,-1.15062 -0.97243,-3.92623 -1.53752,-6.16801 -2.66617,-10.57686 5.71222,-25.59535 15.9867,-28.65659 2.93347,-0.87402 5.95265,-1.00783 10.41995,-0.4618 16.86039,2.06079 23.30724,11.49038 16.98494,24.84328 -2.35502,4.97386 -8.24056,10.69482 -11.0025,10.69482 -1.80219,0 -10.86594,9.04776 -10.86594,10.84676 0,2.59175 7.3221,8.89997 14.61256,12.58919 11.27429,5.70519 25.99934,8.50927 39.92985,7.60383 z M 172.45722,96.262984 c -3.71472,-0.8785 -10.04779,-7.00805 -10.04779,-9.72488 0,-3.02389 2.25466,-12.4756 2.976,-12.4756 0.39922,0 1.34863,-1.20434 2.10982,-2.6763 0.76118,-1.47196 4.10527,-4.50841 7.4313,-6.74765 9.68237,-6.51861 11.01897,-11.20682 4.71104,-16.52432 -1.99893,-1.68507 -4.6891,-3.44464 -5.97816,-3.91016 -3.84101,-1.38712 -12.42235,-3.29863 -15.9375,-3.55012 -1.80469,-0.12912 -7.71094,-0.65325 -13.125,-1.16475 l -9.84375,-0.92999 12.89752,0.40112 c 28.11825,0.87448 40.41451,7.53519 38.32402,20.75958 -0.82532,5.22096 -1.50568,6.36812 -8.01213,13.50924 -4.51341,4.95369 -8.96338,12.88294 -8.9815,16.00388 -0.005,0.86724 1.36193,2.55474 3.03771,3.75 2.49163,1.77718 4.16272,2.15421 9.16995,2.06896 8.58025,-0.14609 15.79952,-4.21581 19.27313,-10.86481 1.57651,-3.01769 1.76222,-11.6173 0.27078,-12.53906 -1.37083,-0.84722 -0.33814,-9.97803 1.51208,-13.36949 0.74936,-1.37356 2.66688,-3.97395 4.26117,-5.77863 2.2686,-2.56798 2.65158,-2.77177 1.76184,-0.9375 -0.62529,1.28906 -2.1289,3.53627 -3.34135,4.9938 -1.76242,2.11865 -2.20447,3.7525 -2.20447,8.1478 0,3.02376 0.42187,5.75847 0.9375,6.07715 1.38392,0.8553 1.13855,8.20044 -0.39547,11.83863 -1.52107,3.60748 -5.90809,7.96548 -11.20561,11.13148 -4.17155,2.49307 -14.22982,3.78191 -19.60113,2.51162 z m -71.45404,-13.45557 c -4.538061,-0.99858 -6.949061,-2.53316 -8.012141,-5.09966 -2.40682,-5.81059 -9.91854,-8.04064 -18.64956,-5.53661 -2.38641,0.68441 -2.93974,0.64905 -2.15309,-0.1376 0.5823,-0.58231 4.16845,-1.25831 7.96921,-1.50223 8.20222,-0.52638 11.986,0.97666 14.90251,5.9198 1.39342,2.36166 2.92162,3.48652 5.783741,4.2572 4.81298,1.29601 11.57866,0.46585 14.69058,-1.80254 4.44225,-3.23812 10.68061,-17.2186 13.03777,-29.21827 1.61219,-8.20727 2.84686,-11.25 4.56502,-11.25 1.25062,0 1.23581,0.2232 -0.11374,1.71444 -0.85336,0.94295 -1.55155,3.00423 -1.55155,4.58063 0,3.59528 -5.52231,20.7781 -8.67744,27.00016 -2.83489,5.59051 -4.54175,7.24123 -10.08942,9.75763 -4.00689,1.81751 -7.59319,2.22115 -11.70189,1.31705 z"
     id="path4138"
     inkscape:connector-curvature="0" />
</svg>
